<?xml version="1.0" encoding="UTF-8" standalone="no"?>
<!-- Created with Inkscape (http://www.inkscape.org/) -->

<svg
   xmlns:dc="http://purl.org/dc/elements/1.1/"
   xmlns:cc="http://creativecommons.org/ns#"
   xmlns:rdf="http://www.w3.org/1999/02/22-rdf-syntax-ns#"
   xmlns:svg="http://www.w3.org/2000/svg"
   xmlns="http://www.w3.org/2000/svg"
   version="1.1"
   width="637.48499"
   height="653.41748"
   id="svg3289"
   xml:space="preserve"><metadata
     id="metadata3295"><rdf:RDF><cc:Work
         rdf:about=""><dc:format>image/svg+xml</dc:format><dc:type
           rdf:resource="http://purl.org/dc/dcmitype/StillImage" /><dc:title></dc:title></cc:Work></rdf:RDF></metadata><defs
     id="defs3293"><clipPath
       id="clipPath3305"><path
         d="m 0,8418.9 11905.5,0 L 11905.5,0 0,0 0,8418.9 z"
         id="path3307" /></clipPath></defs><g
     transform="matrix(1.25,0,0,-1.25,-425.3525,897.90625)"
     id="g3297"><g
       transform="scale(0.1,0.1)"
       id="g3299"><g
         id="g3301"><g
           clip-path="url(#clipPath3305)"
           id="g3303"><path
             d="m 6576.21,7183.25 c -734.88,0 -1330.63,-595.73 -1330.63,-1330.62 0,-734.89 595.75,-1330.69 1330.63,-1330.69 734.9,0 1330.64,595.8 1330.64,1330.69 0,734.89 -595.74,1330.62 -1330.64,1330.62"
             id="path3309"
             style="fill:#dd4814;fill-opacity:1;fill-rule:nonzero;stroke:none" /><path
             d="m 5930.43,5029.8 c -11.28,-11.28 -26.32,-17.5 -42.33,-17.5 -16.06,0 -31.12,6.25 -42.44,17.56 -11.29,11.3 -17.51,26.34 -17.51,42.35 0,16.02 6.22,31.06 17.51,42.36 11.33,11.32 26.4,17.55 42.44,17.55 16.01,0 31.04,-6.21 42.33,-17.51 11.31,-11.31 17.53,-26.36 17.53,-42.4 0.01,-16.05 -6.22,-31.1 -17.53,-42.41"
             id="path3311"
             style="fill:#ffffff;fill-opacity:1;fill-rule:nonzero;stroke:none" /><path
             d="m 6191.54,5924.65 c -6.03,19.2 -14.7,34.98 -25.79,46.9 -11.06,11.94 -24.43,20.86 -39.78,26.54 -15.43,5.73 -32.91,8.64 -51.94,8.64 -19.03,0 -36.36,-2.9 -51.47,-8.63 -15.09,-5.69 -28.34,-14.62 -39.4,-26.54 -11.07,-11.9 -19.74,-27.69 -25.78,-46.91 -6.06,-19.34 -9.14,-42.99 -9.14,-70.32 l 0,-697.36 -120.38,0 0,708.02 c 0,35.72 4.84,68.96 14.38,98.8 9.57,29.96 24.63,56.41 44.75,78.63 20.15,22.26 45.86,39.76 76.42,52.03 30.5,12.26 67.43,18.48 109.73,18.48 42.3,0 79.49,-6.22 110.59,-18.47 31.15,-12.27 57.17,-29.78 77.32,-52.04 20.1,-22.18 35.32,-48.63 45.2,-78.6 9.85,-29.86 14.85,-63.11 14.85,-98.83 l 0,-96.1 -120.38,0 0,85.44 c 0,27.23 -3.1,50.9 -9.18,70.32"
             id="path3313"
             style="fill:#ffffff;fill-opacity:1;fill-rule:nonzero;stroke:none" /><path
             d="m 6693.96,5435.8 c 0,-35.78 -5,-69.04 -14.84,-98.84 -9.85,-29.91 -25.07,-56.35 -45.21,-78.6 -20.16,-22.25 -46.16,-39.76 -77.32,-52.04 -31.13,-12.25 -68.32,-18.46 -110.59,-18.46 -42.27,0 -79.18,6.21 -109.73,18.49 -30.54,12.26 -56.25,29.76 -76.41,52 -20.13,22.26 -35.2,48.72 -44.75,78.63 -9.54,29.84 -14.36,63.09 -14.36,98.82 l 0,304.25 120.36,0 0,-293.6 c 0,-27.34 3.09,-50.99 9.14,-70.29 6.02,-19.24 14.71,-35.04 25.79,-46.95 11.05,-11.93 24.34,-20.86 39.37,-26.53 15.11,-5.73 32.43,-8.63 51.48,-8.63 19.04,0 36.52,2.9 51.93,8.63 15.34,5.68 28.72,14.61 39.79,26.53 11.09,11.93 19.78,27.73 25.8,46.93 6.07,19.41 9.16,43.05 9.16,70.31 l 0,293.6 120.39,0"
             id="path3315"
             style="fill:#ffffff;fill-opacity:1;fill-rule:nonzero;stroke:none" /><path
             d="m 6573.87,5827.91 c 0,33.02 26.85,59.89 59.86,59.89 33.05,0 59.95,-26.87 59.95,-59.89 0,-33.05 -26.9,-59.94 -59.95,-59.94 -33.01,0 -59.86,26.89 -59.86,59.94"
             id="path3317"
             style="fill:#ffffff;fill-opacity:1;fill-rule:nonzero;stroke:none" /><path
             d="m 6937.26,6677.27 c -6.03,19.19 -14.72,34.99 -25.81,46.93 -11.07,11.92 -24.47,20.85 -39.81,26.51 -15.39,5.74 -32.87,8.64 -51.93,8.64 -19.02,0 -36.34,-2.9 -51.44,-8.62 -15.08,-5.69 -28.34,-14.62 -39.42,-26.53 -11.05,-11.93 -19.73,-27.72 -25.75,-46.93 -6.06,-19.33 -9.14,-42.99 -9.14,-70.33 l 0,-697.34 -120.39,0 0,708 c 0,35.7 4.82,68.95 14.38,98.82 9.58,29.96 24.62,56.4 44.76,78.63 20.13,22.24 45.84,39.74 76.43,52 30.55,12.27 67.45,18.5 109.68,18.5 42.28,0 79.48,-6.21 110.61,-18.48 31.19,-12.28 57.19,-29.78 77.3,-52.02 20.15,-22.2 35.36,-48.66 45.23,-78.6 9.84,-29.88 14.84,-63.15 14.84,-98.85 l 0,-96.09 -120.41,0 0,85.43 c 0,27.29 -3.07,50.95 -9.13,70.33"
             id="path3319"
             style="fill:#ffffff;fill-opacity:1;fill-rule:nonzero;stroke:none" /><path
             d="m 7439.63,6188.41 c 0,-35.77 -4.99,-69.03 -14.82,-98.84 -9.87,-29.93 -25.06,-56.38 -45.18,-78.6 -20.18,-22.26 -46.19,-39.76 -77.32,-52.03 -31.16,-12.26 -68.37,-18.47 -110.6,-18.47 -42.29,0 -79.21,6.22 -109.74,18.49 -30.56,12.25 -56.26,29.75 -76.41,52.01 -20.12,22.23 -35.18,48.68 -44.76,78.63 -9.54,29.89 -14.38,63.13 -14.38,98.81 l 0,304.26 120.38,0 0,-293.62 c 0,-27.29 3.07,-50.95 9.15,-70.3 6.02,-19.21 14.69,-34.99 25.8,-46.92 11.06,-11.95 24.32,-20.88 39.36,-26.55 15.13,-5.72 32.44,-8.63 51.46,-8.63 19.07,0 36.54,2.91 51.94,8.64 15.34,5.67 28.72,14.59 39.82,26.54 11.06,11.9 19.74,27.69 25.77,46.92 6.07,19.35 9.16,43.01 9.16,70.3 l 0,293.61 120.37,0"
             id="path3321"
             style="fill:#ffffff;fill-opacity:1;fill-rule:nonzero;stroke:none" /><path
             d="m 3604.9,1955.91 c -25.66,0 -58.78,3.2 -99.43,9.62 -40.6,6.42 -74.83,14.98 -102.65,25.65 l 38.5,243.77 c 21.4,-6.4 46.01,-11.72 73.77,-16.02 27.81,-4.27 53.47,-6.42 76.98,-6.42 102.64,0 175.86,31.57 219.71,94.61 43.81,63.11 65.76,155.57 65.76,277.46 l 0,1639.04 298.3,0 0,-1635.83 c 0,-213.8 -48.66,-372.57 -145.94,-476.31 -97.33,-103.7 -238.96,-155.57 -425,-155.57"
             id="path3323"
             style="fill:#000000;fill-opacity:1;fill-rule:nonzero;stroke:none" /><path
             d="m 5955.98,2603.83 c -68.47,-17.14 -158.77,-35.28 -271.03,-54.54 -112.27,-19.24 -242.17,-28.87 -389.72,-28.87 -128.3,0 -236.3,18.75 -323.96,56.14 -87.71,37.39 -158.26,90.31 -211.69,158.76 -53.48,68.42 -91.96,149.16 -115.47,242.18 -23.56,93.02 -35.28,196.16 -35.28,309.52 l 0,936.6 298.29,0 0,-872.45 c 0,-203.17 32.08,-348.56 96.22,-436.22 64.16,-87.7 172.11,-131.5 323.97,-131.5 32.08,0 65.2,1.05 99.43,3.2 34.18,2.11 66.26,4.82 96.23,8.02 29.92,3.21 57.18,6.42 81.78,9.63 24.57,3.2 42.2,6.91 52.93,11.22 l 0,1408.1 298.3,0"
             id="path3325"
             style="fill:#000000;fill-opacity:1;fill-rule:nonzero;stroke:none" /><path
             d="m 6151.62,1955.91 c -25.66,0 -58.79,3.2 -99.43,9.62 -40.6,6.42 -74.85,14.98 -102.65,25.65 l 38.5,243.77 c 21.39,-6.4 46,-11.72 73.77,-16.02 27.82,-4.27 53.47,-6.42 76.98,-6.42 102.64,0 175.87,31.57 219.71,94.61 43.8,63.11 65.76,155.57 65.76,277.46 l 0,1639.04 298.3,0 0,-1635.83 c 0,-213.8 -48.66,-372.57 -145.95,-476.31 -97.32,-103.7 -238.95,-155.57 -424.99,-155.57"
             id="path3327"
             style="fill:#000000;fill-opacity:1;fill-rule:nonzero;stroke:none" /><path
             d="m 8502.7,2603.83 c -68.47,-17.14 -158.79,-35.28 -271.04,-54.54 -112.27,-19.24 -242.16,-28.87 -389.71,-28.87 -128.31,0 -236.31,18.75 -323.97,56.14 -87.69,37.39 -158.27,90.31 -211.69,158.76 -53.47,68.42 -91.97,149.16 -115.48,242.18 -23.54,93.02 -35.27,196.16 -35.27,309.52 l 0,936.6 298.3,0 0,-872.45 c 0,-203.17 32.07,-348.56 96.21,-436.22 64.15,-87.7 172.11,-131.5 323.97,-131.5 32.07,0 65.2,1.05 99.43,3.2 34.18,2.11 66.26,4.82 96.23,8.02 29.91,3.21 57.18,6.42 81.79,9.63 24.55,3.2 42.21,6.91 52.92,11.22 l 0,1408.1 298.31,0"
             id="path3329"
             style="fill:#000000;fill-opacity:1;fill-rule:nonzero;stroke:none" /></g></g></g></g></svg>