<?xml version="1.0" encoding="utf-8"?>
<!-- Generator: Adobe Illustrator 14.0.0, SVG Export Plug-In . SVG Version: 6.00 Build 43363)  -->
<!DOCTYPE svg PUBLIC "-//W3C//DTD SVG 1.1//EN" "http://www.w3.org/Graphics/SVG/1.1/DTD/svg11.dtd">
<svg version="1.1" id="Layer_1" xmlns="http://www.w3.org/2000/svg" xmlns:xlink="http://www.w3.org/1999/xlink" x="0px" y="0px"
	 width="147.4px" height="111.36px" viewBox="0 0 147.4 111.36" enable-background="new 0 0 147.4 111.36" xml:space="preserve">
<g>
	<path fill="#666666" d="M122.26,38.058c-0.465-0.761-1.543-1.226-3.277-1.438l-25.372-2.389c-2.432-0.148-4.292,0.74-5.519,2.601
		l-2.03,3.425l0.719,3.806l2.431-4.06l0.761-1.269c0.994-1.522,2.474-2.22,4.461-2.114l20.382,1.924
		c2.643,0.338,3.425,1.459,2.347,3.404l-19.6,32.898c-1.375,2.241-3.743,3.129-7.083,2.685l-19.6-3.277
		c-1.099-0.359-1.247-1.353-0.443-2.896l3.911-6.534l1.438-2.41l-0.232-0.169c-0.677-0.529-1.184-1.121-1.543-1.734L62.319,80.175
		c-0.635,1.205-0.761,2.136-0.444,2.77v0.042c0.212,0.359,0.529,0.613,1.036,0.782l24.357,4.081c4.166,0.571,7.125-0.55,8.838-3.32
		L121.9,40.849c0.571-1.015,0.719-1.839,0.465-2.516C122.345,38.248,122.302,38.143,122.26,38.058z M79.213,77.553
		c0.74,0.105,1.226,0.444,1.459,1.015c0.211,0.613,0.126,1.29-0.296,2.03c-0.423,0.74-1.057,1.332-1.882,1.797
		c-0.825,0.465-1.607,0.655-2.347,0.55c-0.74-0.085-1.226-0.423-1.458-1.015c-0.211-0.592-0.127-1.269,0.296-2.008
		c0.423-0.74,1.057-1.354,1.882-1.818C77.69,77.659,78.473,77.447,79.213,77.553z"/>
	<path fill="#666666" d="M123.465,40.595c0.253,0.655,0.084,1.501-0.465,2.516L97.205,86.793c-1.733,2.791-4.672,3.89-8.837,3.319
		l-24.378-4.081c-0.423-0.127-0.74-0.338-0.93-0.634l1.226,2.495c0,0.021,0.021,0.042,0.021,0.063
		c0.19,0.359,0.528,0.634,1.036,0.803L89.7,92.839c4.165,0.571,7.125-0.549,8.859-3.319l25.773-43.682
		c0.719-1.248,0.782-2.262,0.232-2.96L123.465,40.595z"/>
	<path fill="#666666" d="M62.531,47.572l-1.945-6.364l-12.411-4.926l4.123,20.636c-1.057-0.677-2.326-1.1-3.742-1.29
		c-1.586-0.232-2.96-0.105-4.081,0.381c-1.121,0.465-1.691,1.163-1.691,2.03c0,0.909,0.57,1.755,1.691,2.537
		c1.12,0.803,2.495,1.311,4.081,1.522c1.585,0.232,2.939,0.105,4.059-0.359c1.121-0.486,1.691-1.163,1.691-2.072
		c0-0.105-0.021-0.232-0.042-0.359l0,0l-2.749-15.392L62.531,47.572z"/>
	<path fill="#666666" d="M64.835,50.511c-1.142,0.465-1.691,1.163-1.691,2.03c0,0.909,0.55,1.755,1.691,2.537
		c0.317,0.232,0.656,0.444,1.036,0.634c0.888,0.423,1.903,0.74,3.045,0.888c1.586,0.233,2.918,0.106,4.06-0.359
		c1.12-0.486,1.691-1.163,1.691-2.072c0-0.127-0.021-0.254-0.042-0.359l0,0l-2.749-15.393l10.275,3.425l2.875,14.483
		c-1.057-0.656-2.304-1.1-3.742-1.29c-1.585-0.232-2.939-0.084-4.081,0.359c-1.1,0.486-1.67,1.163-1.67,2.072
		c0,0.888,0.571,1.734,1.67,2.516c1.142,0.803,2.495,1.332,4.081,1.543c1.607,0.211,2.96,0.084,4.081-0.402
		c1.142-0.465,1.691-1.142,1.691-2.03c0-0.127,0-0.254-0.042-0.381c0,0,0,0,0-0.021L83.04,36.514l-14.504-5.729l4.102,20.636
		c-1.036-0.677-2.305-1.1-3.721-1.29c-1.142-0.148-2.157-0.148-3.045,0.063C65.491,50.257,65.152,50.363,64.835,50.511z"/>
	<path fill="#666666" d="M51.748,31.292l-1.966-6.364l-12.39-4.926l4.102,20.636c-1.057-0.676-2.305-1.1-3.742-1.29
		c-1.586-0.233-2.939-0.106-4.06,0.38C32.55,40.193,32,40.891,32,41.758c0,0.909,0.55,1.755,1.691,2.537
		c1.121,0.804,2.474,1.311,4.06,1.522c1.586,0.232,2.939,0.105,4.081-0.359c1.121-0.486,1.67-1.163,1.67-2.072
		c0-0.105,0-0.232-0.021-0.359l0,0l-2.748-15.392L51.748,31.292z"/>
</g>
</svg>
